<?xml version="1.0" standalone="no"?>
<!DOCTYPE svg PUBLIC "-//W3C//DTD SVG 1.1//EN" "http://www.w3.org/Graphics/SVG/1.1/DTD/svg11.dtd">
<svg xmlns="http://www.w3.org/2000/svg" xmlns:xlink="http://www.w3.org/1999/xlink" width="100%" height="100%" viewBox="0 0 184 147" version="1.1" xml:space="preserve" style="fill-rule:evenodd;clip-rule:evenodd;stroke-linejoin:round;stroke-miterlimit:1.41421;">
  <path d="M183.8,69.7c0,-13.2 -11.7,-20 -21.9,-20c-5.3,0 -10.3,0.8 -14.5,2.2c-4.7,-8.4 -13.8,-10.9 -21.5,-10.9c-8.7,0 -18.2,2.2 -26.3,5.7c0.3,-2.4 1.9,-5.5 1.9,-7.7c0,-1.3 -4.4,-3.6 -5.8,-6.5c0,0 5.4,-2.1 5.4,-8.2c0,-4.4 -2.6,-8.2 -6.8,-9.3c-0.2,-0.5 -0.5,-1.1 -0.5,-1.6c0,-3 6.4,-2.1 6.4,-4.6c0,-2.7 -4.8,-2.2 -5.6,-3c-0.7,-0.8 -0.1,-5.8 -2.7,-5.8c-2.6,0 -2.2,5 -3,5.8c-0.8,0.8 -5.6,0.3 -5.6,3c0,2.5 6.2,1.4 6.2,4.6c0,0.5 -0.3,1.1 -0.5,1.6c-4.2,1.1 -6.5,5 -6.5,9.3c0,6.1 5.3,8.2 5.3,8.2c-1.4,2.7 -5.6,5 -5.6,6.5c0,2.5 1.4,5.2 1.7,7.7c-8,-3.5 -17.2,-5.7 -26.1,-5.7c-7.6,0 -16.8,2.5 -21.5,10.9c-4.2,-1.4 -9.2,-2.2 -14.5,-2.2c-10.1,0 -21.8,6.8 -21.8,20c0,11.2 7.2,16.7 13.2,24.4c3.1,3.9 5.1,7.4 5.8,12.5c0.2,0.8 0.3,2.5 0.6,3.2c0.5,0.9 2.8,2 3.7,2.7c4.8,2.8 7.5,7.1 9.3,12.5l6.7,19.7c0.2,0.6 0.8,1.4 1.9,1.4c0.3,0 0.9,-0.2 1.1,-0.2c15.9,-5.2 32.8,-6.3 49.6,-6.3c16.8,0 33.6,1.1 49.4,6.3c0.2,0 0.8,0.2 1.1,0.2c1.1,0 1.7,-0.8 1.9,-1.4l6.7,-19.7c2,-6.1 5,-9.3 7.5,-11.2c1.1,-0.8 2.2,-1.6 3.4,-2.2c1.7,-0.9 2.5,-1.3 2.6,-3.2c0.3,-2.2 0.5,-4.3 1.2,-6.5c2.3,-5.8 6.7,-10.1 10.6,-14.7c3.9,-4.7 7.5,-9.9 7.5,-17.5M168.5,72.7c0,7.6 -5.3,16.1 -10.3,21.4c-4,4.4 -8.9,6.8 -9.3,7.7c-0.5,0.9 -0.2,3.3 -1.1,6.9c-0.8,3 -3.6,8.5 -7.3,8.5c-3,0 -2.8,-3.8 -2.8,-6.2c0,-0.9 -0.5,-2.2 -1.7,-2.2c-2,0 -3.3,5.8 -7,5.8c-2.5,0 -3.4,-2.4 -3.4,-4.6c0,-7.9 7.6,-10.7 8.2,-12.1c0.5,-1.1 0.3,-3.3 1.1,-5.8c0.8,-2.5 2.6,-4.7 4.4,-6.8c5.3,-6.6 9.8,-12 10.1,-21.1c2.5,-0.9 5.8,-1.4 8.4,-1.4c6.5,0.1 10.7,2.8 10.7,9.9M134.6,67.3c0,13.7 -14.3,24.8 -16.3,26.3c-0.6,0.5 0.6,3.3 0.6,6.8c0,3.9 -2,12.3 -7,12.3c-5.1,0 -2,-7.6 -5.3,-7.6c-2.3,0 -2.6,6.5 -6.5,6.5c-3.7,0 -4.5,-3.6 -4.5,-6.8c0,-7.9 4.5,-10.9 4.5,-12.8c0,-2.4 -2.3,-6.5 -2.3,-18.8c0,-4.1 -0.2,-8.2 0.2,-12.3c5.6,-3.3 16.5,-5.7 22.9,-5.7c8,0.2 13.7,3.2 13.7,12.1M88.2,104.9c0,3.2 -0.9,6.8 -4.7,6.8c-3.9,0 -4,-6.5 -6.4,-6.5c-3.3,0 -0.3,7.6 -5.4,7.6c-5,0 -6.8,-8.4 -6.8,-12.3c0,-3.5 1.1,-6.3 0.5,-6.8c-2.1,-1.6 -16.4,-12.6 -16.4,-26.4c0,-9 5.9,-12 14,-12c6.4,0 17.1,2.4 22.7,5.7c0.3,4.1 0.3,8.2 0.3,12.3c0,12.3 -2.5,16.4 -2.5,18.8c0,1.9 4.7,4.9 4.7,12.8M58,110.2c0,2.2 -0.9,4.6 -3.4,4.6c-3.7,0 -5,-5.8 -7,-5.8c-1.2,0 -1.6,1.3 -1.6,2.2c0,2.4 0,6.2 -3,6.2c-3.7,0 -6.5,-5.5 -7.3,-8.5c-0.9,-3.6 -0.5,-6 -0.9,-6.9c-0.5,-0.9 -5.4,-3.3 -9.5,-7.7c-5,-5.4 -10.1,-13.9 -10.1,-21.4c0,-7.1 4.2,-9.8 10.7,-9.8c2.6,0 5.8,0.5 8.2,1.4c0.3,9.1 5,14.5 10.3,21.1c1.7,2.1 3.4,4.3 4.2,6.8c0.8,2.5 0.6,4.7 1.1,5.8c0.7,1.3 8.3,4.2 8.3,12" style="fill:#bea76a;fill-rule:nonzero;"/>
</svg>
